<svg width="21" height="24" viewBox="0 0 21 24" fill="none" xmlns="http://www.w3.org/2000/svg">
<path d="M20.2725 18.7033C19.9062 19.5418 19.4727 20.3136 18.9704 21.0232C18.2857 21.9906 17.7251 22.6602 17.2931 23.032C16.6233 23.6424 15.9058 23.955 15.1374 23.9728C14.5857 23.9728 13.9205 23.8172 13.1461 23.5017C12.3692 23.1876 11.6552 23.032 11.0024 23.032C10.3177 23.032 9.58335 23.1876 8.79791 23.5017C8.01127 23.8172 7.37756 23.9816 6.89305 23.9979C6.15619 24.0291 5.42173 23.7076 4.6886 23.032C4.22069 22.6276 3.63542 21.9343 2.93429 20.9521C2.18203 19.9033 1.56358 18.687 1.07906 17.3004C0.560169 15.8026 0.300049 14.3523 0.300049 12.9482C0.300049 11.3398 0.650763 9.95259 1.35324 8.79011C1.90532 7.85636 2.63979 7.11979 3.55903 6.57906C4.47827 6.03834 5.47151 5.76279 6.54114 5.74516C7.12641 5.74516 7.89391 5.92456 8.84769 6.27715C9.79877 6.63091 10.4095 6.81032 10.6772 6.81032C10.8774 6.81032 11.5558 6.60054 12.7058 6.18233C13.7934 5.79449 14.7113 5.63391 15.4633 5.69716C17.5009 5.86012 19.0317 6.6561 20.0497 8.09013C18.2274 9.18432 17.326 10.7169 17.3439 12.6829C17.3603 14.2142 17.9209 15.4886 19.0227 16.5004C19.522 16.97 20.0796 17.333 20.7001 17.5907C20.5655 17.9774 20.4235 18.3477 20.2725 18.7033ZM15.5993 0.480137C15.5993 1.68041 15.1568 2.8011 14.2748 3.8384C13.2104 5.07155 11.9229 5.78412 10.5268 5.67168C10.509 5.52769 10.4987 5.37614 10.4987 5.21688C10.4987 4.06462 11.0049 2.83147 11.9038 1.82321C12.3526 1.3127 12.9234 0.888228 13.6155 0.549615C14.3062 0.216055 14.9595 0.031589 15.5739 0C15.5918 0.160458 15.5993 0.320926 15.5993 0.480121V0.480137Z" fill="black"/>
</svg>
