<svg width="16" height="14" viewBox="0 0 16 14" fill="none" xmlns="http://www.w3.org/2000/svg">
<path d="M1.2207 13.772H3.11328C3.83545 13.772 4.21729 13.3901 4.21729 12.6597V7.32227C4.30859 7.6709 4.56592 7.96973 5.01416 8.24365L13.4727 13.2158C13.813 13.415 14.0869 13.5229 14.4272 13.5229C15.083 13.5229 15.6226 13.0332 15.6226 12.1035V1.91016C15.6226 0.980469 15.083 0.482422 14.4272 0.482422C14.0869 0.482422 13.813 0.590332 13.4727 0.789551L5.01416 5.77002C4.56592 6.03564 4.30859 6.34277 4.21729 6.68311V1.354C4.21729 0.598633 3.83545 0.25 3.11328 0.25H1.2207C0.498535 0.25 0.116699 0.631836 0.116699 1.354V12.6597C0.116699 13.3901 0.498535 13.772 1.2207 13.772Z" fill="white" fill-opacity="0.6"/>
</svg>
