<svg width="44" height="44" viewBox="0 0 44 44" fill="none" xmlns="http://www.w3.org/2000/svg">
<path d="M21.9526 30.4736C26.5845 30.4736 30.4194 26.6304 30.4194 22.0068C30.4194 17.375 26.5762 13.54 21.9443 13.54C17.3208 13.54 13.4858 17.375 13.4858 22.0068C13.4858 26.6304 17.3291 30.4736 21.9526 30.4736ZM21.9526 29.0625C18.0347 29.0625 14.9053 25.9248 14.9053 22.0068C14.9053 18.0889 18.0264 14.9512 21.9443 14.9512C25.8623 14.9512 29.0083 18.0889 29.0083 22.0068C29.0083 25.9248 25.8706 29.0625 21.9526 29.0625ZM21.936 27.8008C25.165 27.8008 27.7383 25.2192 27.73 21.9985C27.7217 18.7861 25.1484 16.2046 21.9277 16.2046C18.707 16.2046 16.1504 18.7778 16.1504 21.9985C16.1504 25.2275 18.7153 27.8008 21.936 27.8008Z" fill="#D9D9D9"/>
</svg>
