<svg width="17" height="12" viewBox="0 0 17 12" fill="none" xmlns="http://www.w3.org/2000/svg">
<path d="M0.938477 1.82324H2.35791C2.81445 1.82324 3.18799 1.44971 3.18799 1.00146C3.18799 0.536621 2.81445 0.171387 2.35791 0.171387H0.938477C0.481934 0.171387 0.116699 0.536621 0.116699 1.00146C0.116699 1.44971 0.481934 1.82324 0.938477 1.82324ZM5.66162 1.66553H16.1704C16.5439 1.66553 16.8428 1.375 16.8428 1.00146C16.8428 0.619629 16.5439 0.329102 16.1704 0.329102H5.66162C5.27979 0.329102 4.98926 0.619629 4.98926 1.00146C4.98926 1.375 5.27979 1.66553 5.66162 1.66553ZM0.938477 6.84521H2.35791C2.81445 6.84521 3.18799 6.47168 3.18799 6.01514C3.18799 5.55859 2.81445 5.19336 2.35791 5.19336H0.938477C0.481934 5.19336 0.116699 5.55859 0.116699 6.01514C0.116699 6.47168 0.481934 6.84521 0.938477 6.84521ZM5.66162 6.6875H16.1704C16.5439 6.6875 16.8428 6.38867 16.8428 6.01514C16.8428 5.6416 16.5439 5.35107 16.1704 5.35107H5.66162C5.27979 5.35107 4.98926 5.6416 4.98926 6.01514C4.98926 6.38867 5.27979 6.6875 5.66162 6.6875ZM0.938477 11.8589H2.35791C2.81445 11.8589 3.18799 11.4854 3.18799 11.0371C3.18799 10.5723 2.81445 10.207 2.35791 10.207H0.938477C0.481934 10.207 0.116699 10.5723 0.116699 11.0371C0.116699 11.4854 0.481934 11.8589 0.938477 11.8589ZM5.66162 11.7012H16.1704C16.5439 11.7012 16.8428 11.4106 16.8428 11.0371C16.8428 10.6553 16.5439 10.3647 16.1704 10.3647H5.66162C5.27979 10.3647 4.98926 10.6553 4.98926 11.0371C4.98926 11.4106 5.27979 11.7012 5.66162 11.7012Z" fill="white" fill-opacity="0.6"/>
</svg>
